<svg xmlns="http://www.w3.org/2000/svg" width="1800" height="1125" viewBox="0 0 1800 1125" role="img" aria-labelledby="title desc">
<title id="title">F2027 UI direction board</title><desc id="desc">Career hub, match HUD, palette and interface rules for Football 2027.</desc>
<defs><linearGradient id="brand" x1="0" y1="0" x2="1" y2="1"><stop stop-color="#75A7FF"/><stop offset=".52" stop-color="#2F7BFF"/><stop offset="1" stop-color="#22D49B"/></linearGradient></defs>
<rect width="1800" height="1125" fill="#05080D"/>
<text x="90" y="95" fill="#F5F8FC" font-family="Inter,Arial,sans-serif" font-size="46" font-weight="900">F2027 — UI DIRECTION BOARD</text>
<text x="90" y="137" fill="#91A2B7" font-family="Inter,Arial,sans-serif" font-size="19" font-weight="600">Broadcast clarity × career depth × responsive browser performance</text>
<g transform="translate(90 195)"><rect width="720" height="370" rx="32" fill="#0A111B" stroke="#243246"/><text x="38" y="55" fill="#91A2B7" font-family="Inter,Arial" font-size="15" font-weight="800" letter-spacing="3">CAREER HUB</text><text x="38" y="108" fill="#F5F8FC" font-family="Inter,Arial" font-size="38" font-weight="900">Saturday, 15:00</text><text x="38" y="145" fill="#91A2B7" font-family="Inter,Arial" font-size="18">Home fixture · League Matchday 4</text><rect x="38" y="188" width="644" height="112" rx="18" fill="#121C28"/><circle cx="102" cy="244" r="30" fill="url(#brand)"/><text x="154" y="238" fill="#F5F8FC" font-family="Inter,Arial" font-size="24" font-weight="900">F27 United</text><text x="154" y="268" fill="#91A2B7" font-family="Inter,Arial" font-size="16">OVR 71 · Form W D W</text><rect x="502" y="218" width="146" height="52" rx="14" fill="#2F7BFF"/><text x="575" y="251" text-anchor="middle" fill="#fff" font-family="Inter,Arial" font-size="16" font-weight="900">PLAY MATCH</text></g>
<g transform="translate(855 195)"><rect width="855" height="370" rx="32" fill="#0A111B" stroke="#243246"/><text x="38" y="55" fill="#91A2B7" font-family="Inter,Arial" font-size="15" font-weight="800" letter-spacing="3">MATCH HUD</text><rect x="250" y="28" width="355" height="74" rx="18" fill="#03070D" stroke="#fff" stroke-opacity=".12"/><text x="282" y="75" fill="#fff" font-family="Inter,Arial" font-size="21" font-weight="900">F27</text><text x="391" y="76" fill="#fff" font-family="Inter,Arial" font-size="32" font-weight="900">2 — 1</text><text x="535" y="75" fill="#fff" font-family="Inter,Arial" font-size="21" font-weight="900">CITY</text><rect x="38" y="230" width="278" height="92" rx="18" fill="#03070D" stroke="#fff" stroke-opacity=".10"/><text x="62" y="264" fill="#91A2B7" font-family="Inter,Arial" font-size="13" font-weight="800">CONTROLLED PLAYER</text><text x="62" y="299" fill="#fff" font-family="Inter,Arial" font-size="23" font-weight="900">J. HARTLEY · LVL 6</text><rect x="62" y="310" width="222" height="5" rx="2.5" fill="#fff" fill-opacity=".12"/><rect x="62" y="310" width="143" height="5" rx="2.5" fill="#22D49B"/><rect x="615" y="238" width="202" height="76" rx="18" fill="#03070D" stroke="#fff" stroke-opacity=".10"/><text x="716" y="270" text-anchor="middle" fill="#FFC857" font-family="Inter,Arial" font-size="13" font-weight="800">SHOT POWER</text><rect x="641" y="287" width="150" height="7" rx="3.5" fill="#fff" fill-opacity=".10"/><rect x="641" y="287" width="113" height="7" rx="3.5" fill="#FFC857"/></g>
<g transform="translate(90 635)"><text fill="#91A2B7" font-family="Inter,Arial" font-size="15" font-weight="800" letter-spacing="3">SEMANTIC PALETTE</text><g transform="translate(0 34)"><rect width="176" height="112" rx="20" fill="#0A111B"/><text y="142" fill="#F5F8FC" font-family="Inter,Arial" font-size="14" font-weight="800">CARBON</text></g><g transform="translate(205 34)"><rect width="176" height="112" rx="20" fill="#121C28"/><text y="142" fill="#F5F8FC" font-family="Inter,Arial" font-size="14" font-weight="800">PANEL</text></g><g transform="translate(410 34)"><rect width="176" height="112" rx="20" fill="#2F7BFF"/><text y="142" fill="#F5F8FC" font-family="Inter,Arial" font-size="14" font-weight="800">ACTION</text></g><g transform="translate(615 34)"><rect width="176" height="112" rx="20" fill="#22D49B"/><text y="142" fill="#F5F8FC" font-family="Inter,Arial" font-size="14" font-weight="800">PROGRESSION</text></g><g transform="translate(820 34)"><rect width="176" height="112" rx="20" fill="#FFC857"/><text y="142" fill="#F5F8FC" font-family="Inter,Arial" font-size="14" font-weight="800">WARNING</text></g><g transform="translate(1025 34)"><rect width="176" height="112" rx="20" fill="#FF5D6C"/><text y="142" fill="#F5F8FC" font-family="Inter,Arial" font-size="14" font-weight="800">DANGER</text></g></g>
<g transform="translate(90 885)"><text fill="#91A2B7" font-family="Inter,Arial" font-size="15" font-weight="800" letter-spacing="3">DESIGN RULES</text><text y="55" fill="#F5F8FC" font-family="Inter,Arial" font-size="24" font-weight="900">01 Keep the centre and lower-middle pitch clear</text><text y="100" fill="#F5F8FC" font-family="Inter,Arial" font-size="24" font-weight="900">02 One primary action per management screen</text><text y="145" fill="#F5F8FC" font-family="Inter,Arial" font-size="24" font-weight="900">03 Reward motion is strong; navigation motion is restrained</text><text y="190" fill="#F5F8FC" font-family="Inter,Arial" font-size="24" font-weight="900">04 All colour meaning has a text or icon equivalent</text></g>
</svg>